HIERARCHY
ROOT root
{
	OFFSET 0.000000 0.000000 0.000000
	CHANNELS 6 Xposition Yposition Zposition Zrotation Yrotation Xrotation
	JOINT lhip
	{
		OFFSET 0.058581 -0.082280 -0.017664
		CHANNELS 3 Zrotation Yrotation Xrotation
		JOINT lknee
		{
			OFFSET 0.043451 -0.386469 0.008037
			CHANNELS 3 Zrotation Yrotation Xrotation
			JOINT lankle
			{
				OFFSET -0.014790 -0.426874 -0.037428
				CHANNELS 3 Zrotation Yrotation Xrotation
				JOINT ltoe
				{
					OFFSET 0.041054 -0.060286 0.122042
					CHANNELS 3 Zrotation Yrotation Xrotation
					End Site
					{
						OFFSET 0.000000 0.000000 0.000000
					}
				}
			}
		}
	}
	JOINT rhip
	{
		OFFSET -0.060310 -0.090513 -0.013543
		CHANNELS 3 Zrotation Yrotation Xrotation
		JOINT rknee
		{
			OFFSET -0.043257 -0.383688 -0.004843
			CHANNELS 3 Zrotation Yrotation Xrotation
			JOINT rankle
			{
				OFFSET 0.019056 -0.420046 -0.034562
				CHANNELS 3 Zrotation Yrotation Xrotation
				JOINT rtoe
				{
					OFFSET -0.034840 -0.062106 0.130323
					CHANNELS 3 Zrotation Yrotation Xrotation
					End Site
					{
						OFFSET 0.000000 0.000000 0.000000
					}
				}
			}
		}
	}
	JOINT lowerback
	{
		OFFSET 0.004439 0.124404 -0.038385
		CHANNELS 3 Zrotation Yrotation Xrotation
		JOINT upperback
		{
			OFFSET 0.004488 0.137956 0.026820
			CHANNELS 3 Zrotation Yrotation Xrotation
			JOINT chest
			{
				OFFSET -0.002265 0.056032 0.002855
				CHANNELS 3 Zrotation Yrotation Xrotation
				JOINT lowerneck
				{
					OFFSET -0.013390 0.211636 -0.033468
					CHANNELS 3 Zrotation Yrotation Xrotation
					JOINT upperneck
					{
						OFFSET 0.010113 0.088937 0.050410
						CHANNELS 3 Zrotation Yrotation Xrotation
						End Site
						{
							OFFSET 0.000000 0.000000 0.000000
						}
					}
				}
				JOINT lclavicle
				{
					OFFSET 0.071702 0.114000 -0.018898
					CHANNELS 3 Zrotation Yrotation Xrotation
					JOINT lshoulder
					{
						OFFSET 0.122921 0.045205 -0.019046
						CHANNELS 3 Zrotation Yrotation Xrotation
						JOINT lelbow
						{
							OFFSET 0.255332 -0.015649 -0.022946
							CHANNELS 3 Zrotation Yrotation Xrotation
							JOINT lwrist
							{
								OFFSET 0.265709 0.012698 -0.007375
								CHANNELS 3 Zrotation Yrotation Xrotation
								End Site
								{
									OFFSET 0.000000 0.000000 0.000000
								}
							}
						}
					}
				}
				JOINT rclavicle
				{
					OFFSET -0.082954 0.112472 -0.023707
					CHANNELS 3 Zrotation Yrotation Xrotation
					JOINT rshoulder
					{
						OFFSET -0.113228 0.046853 -0.008472
						CHANNELS 3 Zrotation Yrotation Xrotation
						JOINT relbow
						{
							OFFSET -0.260127 -0.014369 -0.031269
							CHANNELS 3 Zrotation Yrotation Xrotation
							JOINT rwrist
							{
								OFFSET -0.269108 0.006794 -0.006027
								CHANNELS 3 Zrotation Yrotation Xrotation
								End Site
								{
									OFFSET 0.000000 0.000000 0.000000
								}
							}
						}
					}
				}
			}
		}
	}
}
MOTION
Frames: 14
Frame Time: 0.033333
-0.139384 0.175737 0.919050 116.333263 -26.344183 138.537810 0.837440 -1.021710 -21.057842 -5.645749 -6.935273 13.849108 -12.653230 7.621829 16.645194 0.000000 -0.000000 0.000000 -28.284305 -13.204992 -78.099107 -3.608104 -14.460923 43.607807 2.137559 -13.379564 -9.393714 0.000000 -0.000000 0.000000 11.183236 -13.290003 46.147211 -2.822043 11.655004 2.165091 5.359359 3.088774 3.405131 -3.162355 -24.621172 0.654400 6.981848 0.575229 -15.537151 -18.576242 -18.782210 2.688419 -60.666639 -14.328588 23.297572 28.738021 -80.509632 -5.962357 21.656271 -12.358140 -23.334428 -6.491714 34.743613 1.660551 -20.346565 16.157145 -33.252651 -1.799713 12.854626 -10.749793 -24.415949 19.503667 29.654772 
-0.135239 0.174282 0.913618 115.911457 -26.305768 139.872010 0.877735 -1.584734 -21.214870 -5.835004 -6.908851 14.107219 -13.014557 7.646160 16.520022 0.000000 -0.000000 0.000000 -28.328160 -13.427028 -79.721942 -3.518002 -14.565723 44.856135 2.282181 -13.276575 -10.113161 0.000000 -0.000000 0.000000 11.490768 -13.495096 46.243211 -3.049330 12.201989 2.756619 5.309870 3.100382 3.435530 -2.662913 -24.946338 -0.038390 7.117643 1.092034 -16.558481 -18.046757 -19.357946 2.467626 -61.495783 -14.621519 23.651197 37.065117 -81.060937 -14.088642 21.679272 -12.733073 -23.670284 -8.408909 35.460623 0.750291 -22.310063 15.723069 -34.817501 -0.946566 10.328468 -10.422916 -22.566040 18.981006 32.150979 
-0.131658 0.172805 0.910056 115.220718 -25.971195 140.941587 0.662292 -2.274607 -21.425920 -5.973304 -7.254666 14.304804 -12.949661 7.481036 16.633884 0.000000 -0.000000 0.000000 -28.364342 -12.979120 -80.950236 -3.340164 -14.400714 45.396339 1.934599 -13.595515 -10.383713 0.000000 -0.000000 0.000000 11.231535 -13.460560 46.813671 -3.337458 12.501407 2.870157 5.309919 3.156482 3.619001 -2.197254 -25.318580 -0.330621 7.491454 1.754377 -17.372235 -17.456052 -19.584386 1.999990 -62.099575 -14.773801 24.292423 48.693961 -81.544403 -25.751896 21.497579 -12.460535 -23.907372 -9.887669 36.147377 -0.348998 -23.659818 15.999471 -35.912038 -0.607725 8.052575 -10.645834 -18.444943 17.220421 34.530314 
-0.128579 0.171672 0.908243 115.089892 -25.695476 141.451076 0.337241 -2.755093 -21.913398 -5.935838 -7.743516 14.693510 -13.154683 6.976683 16.617030 0.000000 -0.000000 0.000000 -28.310579 -12.643980 -81.474962 -3.493581 -14.562781 45.712274 1.994533 -13.308774 -10.510543 0.000000 -0.000000 0.000000 11.130908 -13.680042 47.375663 -3.576995 12.428948 2.947352 5.276833 3.266822 3.499201 -2.087862 -25.309529 -0.249087 7.900535 2.399149 -18.117425 -16.914413 -19.887962 1.683639 -62.525484 -14.715617 24.513631 62.211383 -81.903554 -39.099331 21.152399 -12.598081 -24.352869 -11.221088 36.831045 -1.225789 -23.485707 16.275968 -36.672115 -0.861837 6.990877 -11.482267 -15.197294 15.803698 34.732253 
-0.126535 0.170739 0.908386 115.265535 -25.369538 141.460242 0.146670 -3.382194 -22.372838 -5.897764 -7.762795 14.739732 -13.312182 6.762882 16.989439 0.000000 -0.000000 0.000000 -28.056779 -12.407678 -81.481375 -3.291710 -14.626572 45.682842 1.847447 -13.272822 -10.482611 0.000000 -0.000000 0.000000 11.121067 -13.693310 47.571434 -3.484320 12.297263 3.341765 5.304547 3.218134 3.389648 -1.846692 -25.368960 -0.504732 8.094952 2.724735 -18.109554 -16.929479 -20.264094 1.659118 -62.468417 -14.903472 24.871749 76.881983 -81.592360 -54.041669 20.383596 -12.653796 -24.671153 -11.099522 37.259890 -1.121079 -23.690513 16.310978 -37.121417 -0.916191 6.892062 -12.673300 -10.780165 14.035320 34.335803 
-0.125268 0.169854 0.909519 115.486500 -24.764436 141.279133 0.074459 -3.596662 -22.856101 -5.957245 -7.694057 14.396045 -13.680554 6.301061 17.137481 0.000000 -0.000000 0.000000 -27.600374 -11.917623 -81.249974 -3.424059 -15.005617 45.347118 1.655573 -13.069650 -10.410427 0.000000 -0.000000 0.000000 10.880145 -13.513711 47.795595 -3.405424 12.021640 3.180109 5.359388 3.348458 3.334946 -1.917355 -24.914228 -0.601323 8.405645 2.640991 -17.860744 -16.788678 -20.230663 1.469355 -62.527887 -14.858743 25.083489 87.508703 -81.379035 -64.782469 20.250679 -12.724854 -25.390299 -10.393518 37.393559 -0.985739 -22.415719 17.000819 -36.357567 -1.035324 7.901244 -12.054856 -8.471536 13.396428 33.587838 
-0.124441 0.169324 0.912048 115.774543 -24.070351 140.559291 -0.034919 -3.673919 -23.073562 -5.956090 -7.443446 13.851901 -14.119971 5.793984 17.121532 0.000000 -0.000000 0.000000 -27.105706 -11.248329 -80.493948 -3.540290 -15.357907 44.895987 1.998624 -12.423190 -10.176416 0.000000 -0.000000 0.000000 10.486488 -13.372274 48.334456 -3.405161 11.671068 2.834512 5.359592 3.466294 3.267218 -1.910422 -24.405787 -1.229766 8.579868 2.362904 -17.303133 -16.877949 -19.824042 1.127376 -62.502101 -14.706146 25.333681 96.393501 -80.995948 -74.096874 19.822421 -12.665188 -25.977749 -9.230523 37.197491 -0.341792 -20.625309 17.974150 -35.152893 -1.007466 9.512383 -11.528046 -6.444987 12.107480 32.399936 
-0.123909 0.169284 0.916233 116.180988 -23.267833 139.266856 -0.051919 -3.523213 -22.957168 -6.122742 -7.225091 13.261334 -14.915564 5.082542 17.088997 0.000000 -0.000000 0.000000 -26.362608 -10.356437 -79.020535 -3.787863 -15.739817 44.046944 2.076109 -11.723573 -9.888178 0.000000 -0.000000 0.000000 10.308232 -13.089483 48.849790 -3.335621 11.257402 2.789499 5.343572 3.562974 2.961691 -2.215304 -23.813403 -1.730555 8.901414 2.087305 -16.842180 -17.223573 -19.928164 0.921206 -62.319221 -14.273983 25.567180 101.961589 -80.080639 -80.295736 18.753428 -12.923194 -26.114377 -7.917503 37.205383 0.088260 -17.803770 18.491627 -33.338777 -1.297172 11.469444 -12.459333 -2.536004 9.621843 29.175286 
-0.124222 0.169410 0.922280 116.503221 -22.286491 137.788920 -0.089268 -3.370295 -22.782839 -6.277342 -7.409057 12.743690 -15.339089 4.176860 16.571671 0.000000 -0.000000 0.000000 -25.305531 -9.012221 -77.062614 -3.867173 -15.465914 42.260308 1.804570 -11.734174 -9.033361 0.000000 -0.000000 0.000000 10.077712 -12.753778 49.436877 -3.356911 10.865136 2.272958 5.288918 3.644780 2.787654 -2.682912 -23.333749 -2.265090 9.005266 1.844436 -15.914573 -17.612731 -19.690546 0.731961 -61.966714 -13.840074 25.670227 103.820079 -79.641259 -82.434067 17.963859 -13.236182 -26.034517 -6.554517 37.215478 0.363784 -14.202236 19.186937 -31.255236 -1.579558 12.576962 -14.800812 1.993109 7.636865 24.103246 
-0.124717 0.169770 0.929266 116.929023 -21.065572 135.893037 0.118176 -3.161490 -22.321543 -6.375023 -7.683976 12.544167 -15.213213 3.119346 14.356607 0.000000 -0.000000 0.000000 -23.996713 -7.691652 -74.618032 -3.850346 -15.515278 40.255738 2.037354 -11.293730 -8.360161 0.000000 -0.000000 0.000000 9.980289 -12.168177 49.886596 -3.137511 10.528394 2.091996 5.363383 3.700291 2.488001 -2.957388 -22.726061 -2.905265 8.863720 1.313710 -15.323984 -17.937877 -19.344316 0.288103 -62.012151 -13.451809 25.898387 101.068094 -79.554694 -79.931278 17.518910 -13.606866 -25.784516 -4.936601 36.915069 0.480438 -10.286158 19.967311 -28.890333 -1.810534 13.280198 -16.803596 5.387036 6.454539 19.622484 
-0.126438 0.170934 0.937065 117.158525 -19.959678 133.820068 -0.064167 -2.918831 -21.929738 -6.174205 -7.891362 13.115483 -14.260629 2.441061 10.111824 0.000000 -0.000000 0.000000 -22.367892 -6.638142 -72.002168 -3.832235 -15.053281 38.302623 2.253298 -10.781377 -7.658089 0.000000 -0.000000 0.000000 9.854772 -11.726791 50.332029 -3.134023 9.915330 1.366980 5.245219 3.778340 2.515539 -3.119768 -21.720805 -3.603611 9.087560 0.872855 -14.239072 -18.141357 -18.878104 0.031123 -61.763404 -12.940671 25.481168 97.585568 -79.938811 -76.685987 16.846300 -13.737222 -25.587460 -3.347062 36.498537 0.654752 -5.498168 20.793028 -26.287836 -2.470295 14.047956 -17.453230 7.564553 5.980538 16.540502 
-0.127007 0.173095 0.947251 117.979128 -18.321808 130.694007 0.461950 -2.146698 -20.779686 -5.873419 -7.767533 14.134624 -13.184232 2.373655 5.060006 0.000000 -0.000000 0.000000 -19.973020 -5.363135 -67.777971 -3.675189 -14.765499 35.462173 2.344658 -10.367004 -6.846875 0.000000 -0.000000 0.000000 10.578704 -11.422001 51.409724 -2.845429 9.506768 0.795079 5.278295 3.681112 2.355370 -3.556679 -21.520308 -3.988825 8.561819 0.561069 -13.817115 -19.409112 -18.691384 0.173625 -60.859451 -12.517615 24.910295 90.085744 -80.430422 -69.490491 16.685021 -13.673629 -25.034543 -1.353200 36.054104 1.192146 -1.558751 20.520033 -23.151491 -2.342388 15.269157 -16.937187 6.397086 6.462371 14.589290 
-0.125289 0.176735 0.960247 119.523782 -15.907412 125.778158 1.887924 -0.163821 -17.950863 -5.504446 -8.098280 15.562639 -12.188984 1.992849 0.818228 0.000000 -0.000000 0.000000 -15.767626 -4.269026 -61.250699 -3.533860 -13.835699 31.993059 2.257147 -9.588947 -6.194491 0.000000 -0.000000 0.000000 12.309436 -12.019654 54.678011 -2.883323 9.016973 -0.331136 5.056476 3.609033 2.037848 -4.084846 -21.054010 -5.524226 9.006160 0.658616 -12.039828 -20.546001 -18.143606 -0.847563 -59.805460 -11.285864 24.276748 79.928839 -81.728434 -59.615450 16.887449 -13.157561 -24.646719 0.133333 35.454154 0.125084 2.763386 19.574018 -19.512752 -1.351220 16.906809 -15.546381 3.761418 6.861200 13.766199 
-0.125546 0.181018 0.971602 120.582594 -14.014182 121.609531 2.695965 1.001182 -15.935858 -4.981253 -8.865361 17.127825 -10.932989 1.807929 -2.577289 0.000000 -0.000000 0.000000 -12.461583 -4.078313 -55.298495 -3.084324 -12.991017 28.515326 2.279653 -9.506165 -5.026060 0.000000 -0.000000 0.000000 13.267801 -12.445256 56.157934 -2.658722 8.504810 -0.893516 5.113195 3.496348 1.648251 -4.381973 -21.279177 -6.188832 8.718884 0.827371 -11.475175 -22.187622 -17.589669 -0.913563 -58.131888 -10.335353 23.464930 64.624382 -82.392090 -44.780479 17.074737 -12.352236 -23.635811 2.754115 34.922881 0.479810 5.847540 18.057673 -16.278839 -0.498972 18.493588 -14.670933 0.429499 7.579287 13.151454 
